<svg id="Layer_3" enable-background="new 0 0 64 64" height="512" viewBox="0 0 64 64" width="512" xmlns="http://www.w3.org/2000/svg"><g><path d="m9 5c-2.206 0-4 1.794-4 4s1.794 4 4 4 4-1.794 4-4-1.794-4-4-4zm0 6c-1.103 0-2-.897-2-2s.897-2 2-2 2 .897 2 2-.897 2-2 2z"/><path d="m19 5c-2.206 0-4 1.794-4 4s1.794 4 4 4 4-1.794 4-4-1.794-4-4-4zm0 2c.178 0 .347.031.511.075l-2.437 2.437c-.043-.165-.074-.334-.074-.512 0-1.103.897-2 2-2zm0 4c-.178 0-.347-.031-.511-.075l2.437-2.437c.043.165.074.334.074.512 0 1.103-.897 2-2 2z"/><path d="m29 5c-2.206 0-4 1.794-4 4s1.794 4 4 4 4-1.794 4-4-1.794-4-4-4zm0 6c-1.103 0-2-.897-2-2s.897-2 2-2 2 .897 2 2-.897 2-2 2z"/><path d="m9 15c-2.206 0-4 1.794-4 4s1.794 4 4 4 4-1.794 4-4-1.794-4-4-4zm0 2c.178 0 .347.031.511.075l-2.437 2.437c-.043-.165-.074-.334-.074-.512 0-1.103.897-2 2-2zm0 4c-.178 0-.347-.031-.511-.075l2.437-2.437c.043.165.074.334.074.512 0 1.103-.897 2-2 2z"/><path d="m19 15c-2.206 0-4 1.794-4 4s1.794 4 4 4 4-1.794 4-4-1.794-4-4-4zm0 6c-1.103 0-2-.897-2-2s.897-2 2-2 2 .897 2 2-.897 2-2 2z"/><path d="m29 15c-2.206 0-4 1.794-4 4s1.794 4 4 4 4-1.794 4-4-1.794-4-4-4zm0 6c-1.103 0-2-.897-2-2s.897-2 2-2 2 .897 2 2-.897 2-2 2z"/><path d="m9 25c-2.206 0-4 1.794-4 4s1.794 4 4 4 4-1.794 4-4-1.794-4-4-4zm0 2c.178 0 .347.031.511.075l-2.437 2.437c-.043-.165-.074-.334-.074-.512 0-1.103.897-2 2-2zm0 4c-.178 0-.347-.031-.511-.075l2.437-2.437c.043.165.074.334.074.512 0 1.103-.897 2-2 2z"/><path d="m19 25c-2.206 0-4 1.794-4 4s1.794 4 4 4 4-1.794 4-4-1.794-4-4-4zm0 6c-1.103 0-2-.897-2-2s.897-2 2-2 2 .897 2 2-.897 2-2 2z"/><path d="m29 25c-2.206 0-4 1.794-4 4s1.794 4 4 4 4-1.794 4-4-1.794-4-4-4zm0 6c-1.103 0-2-.897-2-2s.897-2 2-2 2 .897 2 2-.897 2-2 2z"/><path d="m9 35c-2.206 0-4 1.794-4 4s1.794 4 4 4 4-1.794 4-4-1.794-4-4-4zm0 6c-1.103 0-2-.897-2-2s.897-2 2-2 2 .897 2 2-.897 2-2 2z"/><path d="m19 35c-2.206 0-4 1.794-4 4s1.794 4 4 4 4-1.794 4-4-1.794-4-4-4zm0 2c.178 0 .347.031.511.075l-2.437 2.437c-.043-.165-.074-.334-.074-.512 0-1.103.897-2 2-2zm0 4c-.178 0-.347-.031-.511-.075l2.437-2.437c.043.165.074.334.074.512 0 1.103-.897 2-2 2z"/><path d="m29 35c-2.206 0-4 1.794-4 4s1.794 4 4 4 4-1.794 4-4-1.794-4-4-4zm0 6c-1.103 0-2-.897-2-2s.897-2 2-2 2 .897 2 2-.897 2-2 2z"/><path d="m62 17h-9.586l9.586-9.585c.645-.645 1-1.502 1-2.415s-.355-1.77-1-2.414l-.586-.586c-1.291-1.289-3.537-1.29-4.828 0l-15 15h-4.586v-15c0-.552-.447-1-1-1h-34c-.553 0-1 .448-1 1v44c0 .552.447 1 1 1h25v15c0 .552.447 1 1 1h34c.553 0 1-.448 1-1v-44c0-.552-.447-1-1-1zm-15 8c0 1.103-.897 2-2 2-.684 0-1.305-.363-1.668-.918l2.75-2.75c.555.363.918.984.918 1.668zm-10.096 2.096 1.433-3.345 1.911 1.911zm5.096-2.51-2.586-2.586 14.586-14.586 2.586 2.586zm16-21.171c.535-.535 1.465-.535 2 0l.586.585c.268.267.414.622.414 1s-.146.733-.414 1l-2.586 2.586-2.586-2.586zm-18.414 15.585-2.293 2.293c-.093.093-.16.201-.209.314l-.003-.001-.007.017s0 .001-.001.001l-.073.171v-2.795zm-36.586-16h32v23.462l-.919 2.144c-.161.376-.077.812.212 1.101.191.191.447.293.707.293v15h-32zm58 58h-32v-14h7c.553 0 1-.448 1-1v-16.77l4.685-2.008c.731 1.082 1.968 1.778 3.315 1.778 2.206 0 4-1.794 4-4 0-1.243-.567-2.361-1.484-3.101l2.898-2.899h10.586z"/><path d="m55 29c2.206 0 4-1.794 4-4s-1.794-4-4-4-4 1.794-4 4 1.794 4 4 4zm0-6c1.103 0 2 .897 2 2s-.897 2-2 2-2-.897-2-2 .897-2 2-2z"/><path d="m55 39c2.206 0 4-1.794 4-4s-1.794-4-4-4-4 1.794-4 4 1.794 4 4 4zm-2-4c0-.178.031-.347.075-.511l2.437 2.437c-.165.043-.334.074-.512.074-1.103 0-2-.897-2-2zm4 0c0 .178-.031.347-.075.511l-2.437-2.437c.165-.043.334-.074.512-.074 1.103 0 2 .897 2 2z"/><path d="m45 31c-2.206 0-4 1.794-4 4s1.794 4 4 4 4-1.794 4-4-1.794-4-4-4zm0 6c-1.103 0-2-.897-2-2s.897-2 2-2 2 .897 2 2-.897 2-2 2z"/><path d="m55 49c2.206 0 4-1.794 4-4s-1.794-4-4-4-4 1.794-4 4 1.794 4 4 4zm-2-4c0-.178.031-.347.075-.511l2.437 2.437c-.165.043-.334.074-.512.074-1.103 0-2-.897-2-2zm4 0c0 .178-.031.347-.075.511l-2.437-2.437c.165-.043.334-.074.512-.074 1.103 0 2 .897 2 2z"/><path d="m45 41c-2.206 0-4 1.794-4 4s1.794 4 4 4 4-1.794 4-4-1.794-4-4-4zm0 6c-1.103 0-2-.897-2-2s.897-2 2-2 2 .897 2 2-.897 2-2 2z"/><path d="m55 51c-2.206 0-4 1.794-4 4s1.794 4 4 4 4-1.794 4-4-1.794-4-4-4zm0 6c-1.103 0-2-.897-2-2s.897-2 2-2 2 .897 2 2-.897 2-2 2z"/><path d="m45 51c-2.206 0-4 1.794-4 4s1.794 4 4 4 4-1.794 4-4-1.794-4-4-4zm2 4c0 .178-.031.347-.075.511l-2.437-2.437c.165-.043.334-.074.512-.074 1.103 0 2 .897 2 2zm-4 0c0-.178.031-.347.075-.511l2.437 2.437c-.165.043-.334.074-.512.074-1.103 0-2-.897-2-2z"/><path d="m35 51c-2.206 0-4 1.794-4 4s1.794 4 4 4 4-1.794 4-4-1.794-4-4-4zm0 6c-1.103 0-2-.897-2-2s.897-2 2-2 2 .897 2 2-.897 2-2 2z"/></g></svg>